STARTFONT 2.1
FONT -bited-varmin-Regular-R-Normal--14-130-75-75-P-40-ISO10646-1
SIZE 13 75 75
FONTBOUNDINGBOX 5 9 0 -2
STARTPROPERTIES 24
FOUNDRY "bited"
FAMILY_NAME "varmin"
WEIGHT_NAME "Regular"
SLANT "R"
SETWIDTH_NAME "Normal"
ADD_STYLE_NAME ""
PIXEL_SIZE 14
POINT_SIZE 130
RESOLUTION_X 75
RESOLUTION_Y 75
SPACING "P"
AVERAGE_WIDTH 40
CHARSET_REGISTRY "ISO10646"
CHARSET_ENCODING "1"
FONT_ASCENT 10
FONT_DESCENT 4
CAP_HEIGHT 7
X_HEIGHT 5
BITED_DWIDTH 4
BITED_WIDTHS "95 H4sIAAAAAAAACmNgQAAAb8bVewwAAAA="
BITED_TABLE_WIDTH -16
BITED_TABLE_CELL_SCALE 2
BITED_EDITOR_GRID_SIZE 32
BITED_EDITOR_CELL_SIZE 12
ENDPROPERTIES
CHARS 95
STARTCHAR U+0020
ENCODING 32
SWIDTH 576 0
DWIDTH 3 0
BBX 0 0 0 0
BITMAP
ENDCHAR
STARTCHAR U+0021
ENCODING 33
SWIDTH 576 0
DWIDTH 3 0
BBX 1 7 1 0
BITMAP
80
80
80
80
80
00
80
ENDCHAR
STARTCHAR U+0022
ENCODING 34
SWIDTH 768 0
DWIDTH 4 0
BBX 3 3 0 4
BITMAP
A0
A0
A0
ENDCHAR
STARTCHAR U+0023
ENCODING 35
SWIDTH 1152 0
DWIDTH 6 0
BBX 5 7 0 0
BITMAP
50
50
F8
50
F8
50
50
ENDCHAR
STARTCHAR U+0024
ENCODING 36
SWIDTH 1152 0
DWIDTH 6 0
BBX 5 7 0 0
BITMAP
20
70
A0
70
28
70
20
ENDCHAR
STARTCHAR U+0025
ENCODING 37
SWIDTH 768 0
DWIDTH 4 0
BBX 3 5 0 1
BITMAP
A0
20
40
80
A0
ENDCHAR
STARTCHAR U+0026
ENCODING 38
SWIDTH 960 0
DWIDTH 5 0
BBX 4 7 0 0
BITMAP
60
80
A0
70
A0
A0
50
ENDCHAR
STARTCHAR U+0027
ENCODING 39
SWIDTH 384 0
DWIDTH 2 0
BBX 1 3 0 4
BITMAP
80
80
80
ENDCHAR
STARTCHAR U+0028
ENCODING 40
SWIDTH 768 0
DWIDTH 4 0
BBX 3 9 0 -1
BITMAP
20
40
40
80
80
80
40
40
20
ENDCHAR
STARTCHAR U+0029
ENCODING 41
SWIDTH 768 0
DWIDTH 4 0
BBX 3 9 0 -1
BITMAP
80
40
40
20
20
20
40
40
80
ENDCHAR
STARTCHAR U+002A
ENCODING 42
SWIDTH 1152 0
DWIDTH 6 0
BBX 5 5 0 2
BITMAP
20
A8
70
A8
20
ENDCHAR
STARTCHAR U+002B
ENCODING 43
SWIDTH 1152 0
DWIDTH 6 0
BBX 5 5 0 1
BITMAP
20
20
F8
20
20
ENDCHAR
STARTCHAR U+002C
ENCODING 44
SWIDTH 576 0
DWIDTH 3 0
BBX 2 3 0 -2
BITMAP
40
40
80
ENDCHAR
STARTCHAR U+002D
ENCODING 45
SWIDTH 768 0
DWIDTH 4 0
BBX 3 1 0 3
BITMAP
E0
ENDCHAR
STARTCHAR U+002E
ENCODING 46
SWIDTH 576 0
DWIDTH 3 0
BBX 1 1 1 0
BITMAP
80
ENDCHAR
STARTCHAR U+002F
ENCODING 47
SWIDTH 768 0
DWIDTH 4 0
BBX 3 9 0 -1
BITMAP
20
20
20
40
40
40
80
80
80
ENDCHAR
STARTCHAR U+0030
ENCODING 48
SWIDTH 768 0
DWIDTH 4 0
BBX 3 7 0 0
BITMAP
40
A0
A0
E0
A0
A0
40
ENDCHAR
STARTCHAR U+0031
ENCODING 49
SWIDTH 768 0
DWIDTH 4 0
BBX 3 7 0 0
BITMAP
40
C0
40
40
40
40
E0
ENDCHAR
STARTCHAR U+0032
ENCODING 50
SWIDTH 768 0
DWIDTH 4 0
BBX 3 7 0 0
BITMAP
C0
20
20
40
40
80
E0
ENDCHAR
STARTCHAR U+0033
ENCODING 51
SWIDTH 768 0
DWIDTH 4 0
BBX 3 7 0 0
BITMAP
C0
20
20
40
20
20
C0
ENDCHAR
STARTCHAR U+0034
ENCODING 52
SWIDTH 768 0
DWIDTH 4 0
BBX 3 7 0 0
BITMAP
80
80
A0
A0
E0
20
20
ENDCHAR
STARTCHAR U+0035
ENCODING 53
SWIDTH 768 0
DWIDTH 4 0
BBX 3 7 0 0
BITMAP
E0
80
80
C0
20
20
C0
ENDCHAR
STARTCHAR U+0036
ENCODING 54
SWIDTH 768 0
DWIDTH 4 0
BBX 3 7 0 0
BITMAP
40
80
80
C0
A0
A0
40
ENDCHAR
STARTCHAR U+0037
ENCODING 55
SWIDTH 768 0
DWIDTH 4 0
BBX 3 7 0 0
BITMAP
E0
20
20
40
40
40
40
ENDCHAR
STARTCHAR U+0038
ENCODING 56
SWIDTH 768 0
DWIDTH 4 0
BBX 3 7 0 0
BITMAP
40
A0
A0
40
A0
A0
40
ENDCHAR
STARTCHAR U+0039
ENCODING 57
SWIDTH 768 0
DWIDTH 4 0
BBX 3 7 0 0
BITMAP
40
A0
A0
60
20
20
40
ENDCHAR
STARTCHAR U+003A
ENCODING 58
SWIDTH 576 0
DWIDTH 3 0
BBX 1 5 1 0
BITMAP
80
00
00
00
80
ENDCHAR
STARTCHAR U+003B
ENCODING 59
SWIDTH 576 0
DWIDTH 3 0
BBX 2 7 0 -2
BITMAP
40
00
00
00
40
40
80
ENDCHAR
STARTCHAR U+003C
ENCODING 60
SWIDTH 768 0
DWIDTH 4 0
BBX 3 5 0 1
BITMAP
20
40
80
40
20
ENDCHAR
STARTCHAR U+003D
ENCODING 61
SWIDTH 1152 0
DWIDTH 6 0
BBX 5 3 0 2
BITMAP
F8
00
F8
ENDCHAR
STARTCHAR U+003E
ENCODING 62
SWIDTH 768 0
DWIDTH 4 0
BBX 3 5 0 1
BITMAP
80
40
20
40
80
ENDCHAR
STARTCHAR U+003F
ENCODING 63
SWIDTH 768 0
DWIDTH 4 0
BBX 3 7 0 0
BITMAP
C0
20
20
40
40
00
40
ENDCHAR
STARTCHAR U+0040
ENCODING 64
SWIDTH 960 0
DWIDTH 5 0
BBX 4 6 0 0
BITMAP
60
90
B0
B0
80
60
ENDCHAR
STARTCHAR U+0041
ENCODING 65
SWIDTH 768 0
DWIDTH 4 0
BBX 3 7 0 0
BITMAP
40
A0
A0
E0
A0
A0
A0
ENDCHAR
STARTCHAR U+0042
ENCODING 66
SWIDTH 768 0
DWIDTH 4 0
BBX 3 7 0 0
BITMAP
C0
A0
A0
C0
A0
A0
C0
ENDCHAR
STARTCHAR U+0043
ENCODING 67
SWIDTH 768 0
DWIDTH 4 0
BBX 3 7 0 0
BITMAP
60
80
80
80
80
80
60
ENDCHAR
STARTCHAR U+0044
ENCODING 68
SWIDTH 768 0
DWIDTH 4 0
BBX 3 7 0 0
BITMAP
C0
A0
A0
A0
A0
A0
C0
ENDCHAR
STARTCHAR U+0045
ENCODING 69
SWIDTH 768 0
DWIDTH 4 0
BBX 3 7 0 0
BITMAP
E0
80
80
C0
80
80
E0
ENDCHAR
STARTCHAR U+0046
ENCODING 70
SWIDTH 768 0
DWIDTH 4 0
BBX 3 7 0 0
BITMAP
E0
80
80
C0
80
80
80
ENDCHAR
STARTCHAR U+0047
ENCODING 71
SWIDTH 768 0
DWIDTH 4 0
BBX 3 7 0 0
BITMAP
60
80
80
A0
A0
A0
60
ENDCHAR
STARTCHAR U+0048
ENCODING 72
SWIDTH 768 0
DWIDTH 4 0
BBX 3 7 0 0
BITMAP
A0
A0
A0
E0
A0
A0
A0
ENDCHAR
STARTCHAR U+0049
ENCODING 73
SWIDTH 768 0
DWIDTH 4 0
BBX 3 7 0 0
BITMAP
E0
40
40
40
40
40
E0
ENDCHAR
STARTCHAR U+004A
ENCODING 74
SWIDTH 768 0
DWIDTH 4 0
BBX 3 7 0 0
BITMAP
20
20
20
20
20
20
C0
ENDCHAR
STARTCHAR U+004B
ENCODING 75
SWIDTH 768 0
DWIDTH 4 0
BBX 3 7 0 0
BITMAP
A0
A0
A0
C0
A0
A0
A0
ENDCHAR
STARTCHAR U+004C
ENCODING 76
SWIDTH 768 0
DWIDTH 4 0
BBX 3 7 0 0
BITMAP
80
80
80
80
80
80
E0
ENDCHAR
STARTCHAR U+004D
ENCODING 77
SWIDTH 1152 0
DWIDTH 6 0
BBX 5 7 0 0
BITMAP
50
A8
A8
A8
A8
A8
88
ENDCHAR
STARTCHAR U+004E
ENCODING 78
SWIDTH 768 0
DWIDTH 4 0
BBX 3 7 0 0
BITMAP
C0
A0
A0
A0
A0
A0
A0
ENDCHAR
STARTCHAR U+004F
ENCODING 79
SWIDTH 768 0
DWIDTH 4 0
BBX 3 7 0 0
BITMAP
40
A0
A0
A0
A0
A0
40
ENDCHAR
STARTCHAR U+0050
ENCODING 80
SWIDTH 768 0
DWIDTH 4 0
BBX 3 7 0 0
BITMAP
C0
A0
A0
C0
80
80
80
ENDCHAR
STARTCHAR U+0051
ENCODING 81
SWIDTH 768 0
DWIDTH 4 0
BBX 3 8 0 -1
BITMAP
40
A0
A0
A0
A0
A0
40
20
ENDCHAR
STARTCHAR U+0052
ENCODING 82
SWIDTH 768 0
DWIDTH 4 0
BBX 3 7 0 0
BITMAP
C0
A0
A0
C0
A0
A0
A0
ENDCHAR
STARTCHAR U+0053
ENCODING 83
SWIDTH 768 0
DWIDTH 4 0
BBX 3 7 0 0
BITMAP
60
80
80
40
20
20
C0
ENDCHAR
STARTCHAR U+0054
ENCODING 84
SWIDTH 768 0
DWIDTH 4 0
BBX 3 7 0 0
BITMAP
E0
40
40
40
40
40
40
ENDCHAR
STARTCHAR U+0055
ENCODING 85
SWIDTH 768 0
DWIDTH 4 0
BBX 3 7 0 0
BITMAP
A0
A0
A0
A0
A0
A0
40
ENDCHAR
STARTCHAR U+0056
ENCODING 86
SWIDTH 768 0
DWIDTH 4 0
BBX 3 7 0 0
BITMAP
A0
A0
A0
A0
A0
C0
80
ENDCHAR
STARTCHAR U+0057
ENCODING 87
SWIDTH 1152 0
DWIDTH 6 0
BBX 5 7 0 0
BITMAP
88
A8
A8
A8
A8
F0
A0
ENDCHAR
STARTCHAR U+0058
ENCODING 88
SWIDTH 768 0
DWIDTH 4 0
BBX 3 7 0 0
BITMAP
A0
A0
A0
40
A0
A0
A0
ENDCHAR
STARTCHAR U+0059
ENCODING 89
SWIDTH 768 0
DWIDTH 4 0
BBX 3 7 0 0
BITMAP
A0
A0
A0
40
40
40
40
ENDCHAR
STARTCHAR U+005A
ENCODING 90
SWIDTH 768 0
DWIDTH 4 0
BBX 3 7 0 0
BITMAP
E0
20
40
40
80
80
E0
ENDCHAR
STARTCHAR U+005B
ENCODING 91
SWIDTH 768 0
DWIDTH 4 0
BBX 3 9 0 -1
BITMAP
E0
80
80
80
80
80
80
80
E0
ENDCHAR
STARTCHAR U+005C
ENCODING 92
SWIDTH 768 0
DWIDTH 4 0
BBX 3 9 0 -1
BITMAP
80
80
80
40
40
40
20
20
20
ENDCHAR
STARTCHAR U+005D
ENCODING 93
SWIDTH 768 0
DWIDTH 4 0
BBX 3 9 0 -1
BITMAP
E0
20
20
20
20
20
20
20
E0
ENDCHAR
STARTCHAR U+005E
ENCODING 94
SWIDTH 768 0
DWIDTH 4 0
BBX 3 2 0 5
BITMAP
40
A0
ENDCHAR
STARTCHAR U+005F
ENCODING 95
SWIDTH 768 0
DWIDTH 4 0
BBX 3 1 1 -1
BITMAP
E0
ENDCHAR
STARTCHAR U+0060
ENCODING 96
SWIDTH 576 0
DWIDTH 3 0
BBX 2 2 0 5
BITMAP
80
40
ENDCHAR
STARTCHAR U+0061
ENCODING 97
SWIDTH 768 0
DWIDTH 4 0
BBX 3 5 0 0
BITMAP
40
20
60
A0
60
ENDCHAR
STARTCHAR U+0062
ENCODING 98
SWIDTH 768 0
DWIDTH 4 0
BBX 3 7 0 0
BITMAP
80
80
C0
A0
A0
A0
C0
ENDCHAR
STARTCHAR U+0063
ENCODING 99
SWIDTH 768 0
DWIDTH 4 0
BBX 3 5 0 0
BITMAP
60
80
80
80
60
ENDCHAR
STARTCHAR U+0064
ENCODING 100
SWIDTH 768 0
DWIDTH 4 0
BBX 3 7 0 0
BITMAP
20
20
60
A0
A0
A0
60
ENDCHAR
STARTCHAR U+0065
ENCODING 101
SWIDTH 768 0
DWIDTH 4 0
BBX 3 5 0 0
BITMAP
40
A0
E0
80
60
ENDCHAR
STARTCHAR U+0066
ENCODING 102
SWIDTH 768 0
DWIDTH 4 0
BBX 3 7 0 0
BITMAP
20
40
E0
40
40
40
40
ENDCHAR
STARTCHAR U+0067
ENCODING 103
SWIDTH 768 0
DWIDTH 4 0
BBX 3 7 0 -2
BITMAP
60
A0
A0
A0
60
20
C0
ENDCHAR
STARTCHAR U+0068
ENCODING 104
SWIDTH 768 0
DWIDTH 4 0
BBX 3 7 0 0
BITMAP
80
80
C0
A0
A0
A0
A0
ENDCHAR
STARTCHAR U+0069
ENCODING 105
SWIDTH 576 0
DWIDTH 3 0
BBX 2 7 0 0
BITMAP
40
00
C0
40
40
40
40
ENDCHAR
STARTCHAR U+006A
ENCODING 106
SWIDTH 576 0
DWIDTH 3 0
BBX 2 9 0 -2
BITMAP
40
00
C0
40
40
40
40
40
80
ENDCHAR
STARTCHAR U+006B
ENCODING 107
SWIDTH 768 0
DWIDTH 4 0
BBX 3 7 0 0
BITMAP
80
80
A0
A0
C0
A0
A0
ENDCHAR
STARTCHAR U+006C
ENCODING 108
SWIDTH 576 0
DWIDTH 3 0
BBX 2 7 0 0
BITMAP
C0
40
40
40
40
40
40
ENDCHAR
STARTCHAR U+006D
ENCODING 109
SWIDTH 1152 0
DWIDTH 6 0
BBX 5 5 0 0
BITMAP
D0
A8
A8
A8
A8
ENDCHAR
STARTCHAR U+006E
ENCODING 110
SWIDTH 768 0
DWIDTH 4 0
BBX 3 5 0 0
BITMAP
C0
A0
A0
A0
A0
ENDCHAR
STARTCHAR U+006F
ENCODING 111
SWIDTH 768 0
DWIDTH 4 0
BBX 3 5 0 0
BITMAP
40
A0
A0
A0
40
ENDCHAR
STARTCHAR U+0070
ENCODING 112
SWIDTH 768 0
DWIDTH 4 0
BBX 3 7 0 -2
BITMAP
C0
A0
A0
A0
C0
80
80
ENDCHAR
STARTCHAR U+0071
ENCODING 113
SWIDTH 768 0
DWIDTH 4 0
BBX 3 7 0 -2
BITMAP
60
A0
A0
A0
60
20
20
ENDCHAR
STARTCHAR U+0072
ENCODING 114
SWIDTH 768 0
DWIDTH 4 0
BBX 3 5 0 0
BITMAP
A0
C0
80
80
80
ENDCHAR
STARTCHAR U+0073
ENCODING 115
SWIDTH 768 0
DWIDTH 4 0
BBX 3 5 0 0
BITMAP
60
80
40
20
C0
ENDCHAR
STARTCHAR U+0074
ENCODING 116
SWIDTH 768 0
DWIDTH 4 0
BBX 3 7 0 0
BITMAP
40
40
E0
40
40
40
20
ENDCHAR
STARTCHAR U+0075
ENCODING 117
SWIDTH 768 0
DWIDTH 4 0
BBX 3 5 0 0
BITMAP
A0
A0
A0
A0
60
ENDCHAR
STARTCHAR U+0076
ENCODING 118
SWIDTH 768 0
DWIDTH 4 0
BBX 3 5 0 0
BITMAP
A0
A0
A0
C0
80
ENDCHAR
STARTCHAR U+0077
ENCODING 119
SWIDTH 1152 0
DWIDTH 6 0
BBX 5 5 0 0
BITMAP
A8
A8
A8
F0
A0
ENDCHAR
STARTCHAR U+0078
ENCODING 120
SWIDTH 768 0
DWIDTH 4 0
BBX 3 5 0 0
BITMAP
A0
A0
40
A0
A0
ENDCHAR
STARTCHAR U+0079
ENCODING 121
SWIDTH 768 0
DWIDTH 4 0
BBX 3 7 0 -2
BITMAP
A0
A0
A0
A0
60
20
C0
ENDCHAR
STARTCHAR U+007A
ENCODING 122
SWIDTH 768 0
DWIDTH 4 0
BBX 3 5 0 0
BITMAP
E0
20
40
80
E0
ENDCHAR
STARTCHAR U+007B
ENCODING 123
SWIDTH 768 0
DWIDTH 4 0
BBX 3 9 0 -1
BITMAP
20
40
40
40
80
40
40
40
20
ENDCHAR
STARTCHAR U+007C
ENCODING 124
SWIDTH 384 0
DWIDTH 2 0
BBX 1 9 0 -1
BITMAP
80
80
80
80
80
80
80
80
80
ENDCHAR
STARTCHAR U+007D
ENCODING 125
SWIDTH 768 0
DWIDTH 4 0
BBX 3 9 0 -1
BITMAP
80
40
40
40
20
40
40
40
80
ENDCHAR
STARTCHAR U+007E
ENCODING 126
SWIDTH 960 0
DWIDTH 5 0
BBX 4 2 0 3
BITMAP
D0
B0
ENDCHAR
ENDFONT
